<mxfile host="app.diagrams.net" modified="2024-03-25T08:05:48.753Z" agent="Mozilla/5.0 (Windows NT 10.0; Win64; x64) AppleWebKit/537.36 (KHTML, like Gecko) Chrome/122.0.0.0 Safari/537.36" etag="WfazUhzMrvgWZ0TmyoR4" version="24.1.0" type="device">
  <diagram name="Page-1" id="NYTOA4VtZVEJcg5zAwn5">
    <mxGraphModel dx="1050" dy="557" grid="1" gridSize="10" guides="1" tooltips="1" connect="1" arrows="1" fold="1" page="1" pageScale="1" pageWidth="827" pageHeight="1169" math="0" shadow="0">
      <root>
        <mxCell id="0" />
        <mxCell id="1" parent="0" />
        <mxCell id="w7aRmCZeMN071_OkVyz--5" style="edgeStyle=orthogonalEdgeStyle;rounded=0;orthogonalLoop=1;jettySize=auto;html=1;exitX=0.5;exitY=1;exitDx=0;exitDy=0;entryX=0.5;entryY=0;entryDx=0;entryDy=0;" edge="1" parent="1" source="w7aRmCZeMN071_OkVyz--1" target="w7aRmCZeMN071_OkVyz--2">
          <mxGeometry relative="1" as="geometry" />
        </mxCell>
        <mxCell id="w7aRmCZeMN071_OkVyz--9" style="edgeStyle=orthogonalEdgeStyle;rounded=0;orthogonalLoop=1;jettySize=auto;html=1;" edge="1" parent="1" source="w7aRmCZeMN071_OkVyz--1" target="w7aRmCZeMN071_OkVyz--3">
          <mxGeometry relative="1" as="geometry">
            <Array as="points">
              <mxPoint x="500" y="120" />
              <mxPoint x="260" y="120" />
            </Array>
          </mxGeometry>
        </mxCell>
        <mxCell id="w7aRmCZeMN071_OkVyz--1" value="USER" style="ellipse;whiteSpace=wrap;html=1;" vertex="1" parent="1">
          <mxGeometry x="440" y="40" width="120" height="40" as="geometry" />
        </mxCell>
        <mxCell id="w7aRmCZeMN071_OkVyz--21" style="edgeStyle=orthogonalEdgeStyle;rounded=0;orthogonalLoop=1;jettySize=auto;html=1;entryX=1;entryY=0.5;entryDx=0;entryDy=0;" edge="1" parent="1" source="w7aRmCZeMN071_OkVyz--2" target="w7aRmCZeMN071_OkVyz--19">
          <mxGeometry relative="1" as="geometry" />
        </mxCell>
        <mxCell id="w7aRmCZeMN071_OkVyz--29" style="edgeStyle=orthogonalEdgeStyle;rounded=0;orthogonalLoop=1;jettySize=auto;html=1;entryX=0.5;entryY=0;entryDx=0;entryDy=0;" edge="1" parent="1" source="w7aRmCZeMN071_OkVyz--2" target="w7aRmCZeMN071_OkVyz--26">
          <mxGeometry relative="1" as="geometry" />
        </mxCell>
        <mxCell id="w7aRmCZeMN071_OkVyz--30" style="edgeStyle=orthogonalEdgeStyle;rounded=0;orthogonalLoop=1;jettySize=auto;html=1;entryX=0.5;entryY=0;entryDx=0;entryDy=0;" edge="1" parent="1" source="w7aRmCZeMN071_OkVyz--2" target="w7aRmCZeMN071_OkVyz--25">
          <mxGeometry relative="1" as="geometry" />
        </mxCell>
        <mxCell id="w7aRmCZeMN071_OkVyz--31" style="edgeStyle=orthogonalEdgeStyle;rounded=0;orthogonalLoop=1;jettySize=auto;html=1;entryX=0.5;entryY=0;entryDx=0;entryDy=0;" edge="1" parent="1" source="w7aRmCZeMN071_OkVyz--2" target="w7aRmCZeMN071_OkVyz--24">
          <mxGeometry relative="1" as="geometry" />
        </mxCell>
        <mxCell id="w7aRmCZeMN071_OkVyz--32" style="edgeStyle=orthogonalEdgeStyle;rounded=0;orthogonalLoop=1;jettySize=auto;html=1;entryX=1;entryY=0.5;entryDx=0;entryDy=0;" edge="1" parent="1" source="w7aRmCZeMN071_OkVyz--2" target="w7aRmCZeMN071_OkVyz--23">
          <mxGeometry relative="1" as="geometry">
            <Array as="points">
              <mxPoint x="680" y="180" />
              <mxPoint x="680" y="340" />
            </Array>
          </mxGeometry>
        </mxCell>
        <mxCell id="w7aRmCZeMN071_OkVyz--2" value="CLIENT" style="ellipse;whiteSpace=wrap;html=1;" vertex="1" parent="1">
          <mxGeometry x="690" y="160" width="120" height="40" as="geometry" />
        </mxCell>
        <mxCell id="w7aRmCZeMN071_OkVyz--13" style="edgeStyle=orthogonalEdgeStyle;rounded=0;orthogonalLoop=1;jettySize=auto;html=1;entryX=0.5;entryY=0;entryDx=0;entryDy=0;" edge="1" parent="1" source="w7aRmCZeMN071_OkVyz--3" target="w7aRmCZeMN071_OkVyz--6">
          <mxGeometry relative="1" as="geometry" />
        </mxCell>
        <mxCell id="w7aRmCZeMN071_OkVyz--14" style="edgeStyle=orthogonalEdgeStyle;rounded=0;orthogonalLoop=1;jettySize=auto;html=1;entryX=0.5;entryY=0;entryDx=0;entryDy=0;" edge="1" parent="1" source="w7aRmCZeMN071_OkVyz--3" target="w7aRmCZeMN071_OkVyz--7">
          <mxGeometry relative="1" as="geometry" />
        </mxCell>
        <mxCell id="w7aRmCZeMN071_OkVyz--15" style="edgeStyle=orthogonalEdgeStyle;rounded=0;orthogonalLoop=1;jettySize=auto;html=1;" edge="1" parent="1" source="w7aRmCZeMN071_OkVyz--3" target="w7aRmCZeMN071_OkVyz--8">
          <mxGeometry relative="1" as="geometry" />
        </mxCell>
        <mxCell id="w7aRmCZeMN071_OkVyz--20" style="edgeStyle=orthogonalEdgeStyle;rounded=0;orthogonalLoop=1;jettySize=auto;html=1;entryX=0;entryY=0.5;entryDx=0;entryDy=0;" edge="1" parent="1" source="w7aRmCZeMN071_OkVyz--3" target="w7aRmCZeMN071_OkVyz--19">
          <mxGeometry relative="1" as="geometry" />
        </mxCell>
        <mxCell id="w7aRmCZeMN071_OkVyz--3" value="EMPLOYE" style="ellipse;whiteSpace=wrap;html=1;" vertex="1" parent="1">
          <mxGeometry x="200" y="160" width="120" height="40" as="geometry" />
        </mxCell>
        <mxCell id="w7aRmCZeMN071_OkVyz--6" value="Consulter infos entreprise" style="ellipse;whiteSpace=wrap;html=1;strokeColor=#0000FF;" vertex="1" parent="1">
          <mxGeometry x="70" y="240" width="120" height="40" as="geometry" />
        </mxCell>
        <mxCell id="w7aRmCZeMN071_OkVyz--16" style="edgeStyle=orthogonalEdgeStyle;rounded=0;orthogonalLoop=1;jettySize=auto;html=1;entryX=0.5;entryY=0;entryDx=0;entryDy=0;" edge="1" parent="1" source="w7aRmCZeMN071_OkVyz--7" target="w7aRmCZeMN071_OkVyz--10">
          <mxGeometry relative="1" as="geometry" />
        </mxCell>
        <mxCell id="w7aRmCZeMN071_OkVyz--7" value="Demander de l&#39;aide" style="ellipse;whiteSpace=wrap;html=1;strokeColor=#0000FF;" vertex="1" parent="1">
          <mxGeometry x="200" y="240" width="120" height="40" as="geometry" />
        </mxCell>
        <mxCell id="w7aRmCZeMN071_OkVyz--17" style="edgeStyle=orthogonalEdgeStyle;rounded=0;orthogonalLoop=1;jettySize=auto;html=1;entryX=0.5;entryY=0;entryDx=0;entryDy=0;" edge="1" parent="1" source="w7aRmCZeMN071_OkVyz--8" target="w7aRmCZeMN071_OkVyz--12">
          <mxGeometry relative="1" as="geometry" />
        </mxCell>
        <mxCell id="w7aRmCZeMN071_OkVyz--8" value="Valider fin de consultation" style="ellipse;whiteSpace=wrap;html=1;strokeColor=#0000FF;" vertex="1" parent="1">
          <mxGeometry x="330" y="240" width="120" height="40" as="geometry" />
        </mxCell>
        <mxCell id="w7aRmCZeMN071_OkVyz--18" style="edgeStyle=orthogonalEdgeStyle;rounded=0;orthogonalLoop=1;jettySize=auto;html=1;entryX=0.5;entryY=0;entryDx=0;entryDy=0;" edge="1" parent="1" source="w7aRmCZeMN071_OkVyz--10" target="w7aRmCZeMN071_OkVyz--11">
          <mxGeometry relative="1" as="geometry" />
        </mxCell>
        <mxCell id="w7aRmCZeMN071_OkVyz--10" value="saisir notes" style="ellipse;whiteSpace=wrap;html=1;strokeColor=#0000FF;" vertex="1" parent="1">
          <mxGeometry x="200" y="320" width="120" height="40" as="geometry" />
        </mxCell>
        <mxCell id="w7aRmCZeMN071_OkVyz--11" value="consulter propositions" style="ellipse;whiteSpace=wrap;html=1;strokeColor=#0000FF;" vertex="1" parent="1">
          <mxGeometry x="200" y="400" width="120" height="40" as="geometry" />
        </mxCell>
        <mxCell id="w7aRmCZeMN071_OkVyz--12" value="laisser un commentaire" style="ellipse;whiteSpace=wrap;html=1;strokeColor=#0000FF;" vertex="1" parent="1">
          <mxGeometry x="330" y="320" width="120" height="40" as="geometry" />
        </mxCell>
        <mxCell id="w7aRmCZeMN071_OkVyz--19" value="S&#39;identifier" style="ellipse;whiteSpace=wrap;html=1;strokeColor=#0000FF;" vertex="1" parent="1">
          <mxGeometry x="440" y="160" width="120" height="40" as="geometry" />
        </mxCell>
        <mxCell id="w7aRmCZeMN071_OkVyz--22" value="SÃ©lectionner medium" style="ellipse;whiteSpace=wrap;html=1;strokeColor=#0000FF;" vertex="1" parent="1">
          <mxGeometry x="550" y="400" width="120" height="40" as="geometry" />
        </mxCell>
        <mxCell id="w7aRmCZeMN071_OkVyz--28" style="edgeStyle=orthogonalEdgeStyle;rounded=0;orthogonalLoop=1;jettySize=auto;html=1;entryX=0.5;entryY=0;entryDx=0;entryDy=0;" edge="1" parent="1" source="w7aRmCZeMN071_OkVyz--23" target="w7aRmCZeMN071_OkVyz--22">
          <mxGeometry relative="1" as="geometry" />
        </mxCell>
        <mxCell id="w7aRmCZeMN071_OkVyz--23" value="Consulter liste mediums" style="ellipse;whiteSpace=wrap;html=1;strokeColor=#0000FF;" vertex="1" parent="1">
          <mxGeometry x="550" y="320" width="120" height="40" as="geometry" />
        </mxCell>
        <mxCell id="w7aRmCZeMN071_OkVyz--24" value="Consulter profil astral" style="ellipse;whiteSpace=wrap;html=1;strokeColor=#0000FF;" vertex="1" parent="1">
          <mxGeometry x="820" y="240" width="120" height="40" as="geometry" />
        </mxCell>
        <mxCell id="w7aRmCZeMN071_OkVyz--25" value="S&#39;inscrire" style="ellipse;whiteSpace=wrap;html=1;strokeColor=#0000FF;" vertex="1" parent="1">
          <mxGeometry x="690" y="240" width="120" height="40" as="geometry" />
        </mxCell>
        <mxCell id="w7aRmCZeMN071_OkVyz--27" style="edgeStyle=orthogonalEdgeStyle;rounded=0;orthogonalLoop=1;jettySize=auto;html=1;entryX=0.5;entryY=0;entryDx=0;entryDy=0;" edge="1" parent="1" source="w7aRmCZeMN071_OkVyz--26" target="w7aRmCZeMN071_OkVyz--23">
          <mxGeometry relative="1" as="geometry" />
        </mxCell>
        <mxCell id="w7aRmCZeMN071_OkVyz--26" value="Prendre RDV" style="ellipse;whiteSpace=wrap;html=1;strokeColor=#0000FF;" vertex="1" parent="1">
          <mxGeometry x="550" y="240" width="120" height="40" as="geometry" />
        </mxCell>
      </root>
    </mxGraphModel>
  </diagram>
</mxfile>
